# xmcd
#
# Track frame offsets:
#	150
#	19496
#	37764
#	64801
#	91395
#	113126
#	131382
#	155952
#	181722
#	201928
#
# Disc length: 2947 seconds
#
# Revision: 1
# Processed by: cddbd v1.5.2PL0 Copyright (c) Steve Scherf et al.
# Submitted via: audiograbber 1.83.01
#
DISCID=830b810a
DTITLE=The Nimmo Brothers - Picking up the Pieces
DYEAR=2007
DGENRE=Blues
TTITLE0=All Because Of You
TTITLE1=Bad Luck
TTITLE2=It's Not About You
TTITLE3=Unfinished Business
TTITLE4=Bring It On Home
TTITLE5=Gotta Slow Down
TTITLE6=A Better Day
TTITLE7=Nothing In Chicago For For Free
TTITLE8=In Too Deep
TTITLE9=You Don't Know
EXTD=
EXTT0=
EXTT1=
EXTT2=
EXTT3=
EXTT4=
EXTT5=
EXTT6=
EXTT7=
EXTT8=
EXTT9=
PLAYORDER=
